<?xml version="1.0" encoding="UTF-8" standalone="no"?>
<!DOCTYPE svg PUBLIC "-//W3C//DTD SVG 1.1//EN" "http://www.w3.org/Graphics/SVG/1.1/DTD/svg11.dtd">
<svg width="100%" height="100%" viewBox="0 0 192 192" version="1.1" xmlns="http://www.w3.org/2000/svg" xmlns:xlink="http://www.w3.org/1999/xlink" xml:space="preserve" xmlns:serif="http://www.serif.com/" style="fill-rule:evenodd;clip-rule:evenodd;stroke-linejoin:round;stroke-miterlimit:2;">
    <g transform="matrix(1.34938,0,0,1.34938,-278.632,-696.707)">
        <g transform="matrix(1.16794,0,0,1.16794,-57.8065,-97.0265)">
            <path d="M245.398,583.525C245.29,582.627 245.573,581.727 246.174,581.052C246.776,580.378 247.637,579.993 248.541,579.996C262.519,580.027 314.739,580.21 328.715,580.258C329.624,580.261 330.488,580.654 331.088,581.337C331.688,582.02 331.966,582.927 331.852,583.829C328.918,605.057 310.672,621.415 288.635,621.415C266.498,621.415 248.186,604.907 245.398,583.525Z" style="fill:rgb(74,163,219);"/>
        </g>
        <g transform="matrix(1,-2.44929e-16,1.90728e-16,0.778705,-405.661,189.853)">
            <path d="M684.897,507.718C697.959,507.718 708.564,518.323 708.564,531.385C708.564,533.351 697.959,540.138 684.897,540.138C671.835,540.138 661.231,534.173 661.231,531.385C661.231,518.323 671.835,507.718 684.897,507.718Z" style="fill:white;"/>
        </g>
        <g transform="matrix(0.788732,0,0,0.816901,-261.149,124.481)">
            <circle cx="684.897" cy="531.385" r="23.667" style="fill:rgb(74,163,219);"/>
        </g>
        <g transform="matrix(0.866025,-0.5,0.5,0.866025,-259.981,216.487)">
            <path d="M290.077,627.081C290.077,624.846 288.263,623.031 286.027,623.031L277.927,623.031C275.692,623.031 273.877,624.846 273.877,627.081L273.877,635.181C273.877,637.417 275.692,639.231 277.927,639.231L286.027,639.231C288.263,639.231 290.077,637.417 290.077,635.181L290.077,627.081Z" style="fill:rgb(74,163,219);"/>
        </g>
        <g transform="matrix(0.866025,-0.5,0.820988,1.42199,-450.964,-114.248)">
            <path d="M290.077,625.498C290.077,624.137 288.263,623.031 286.027,623.031L277.927,623.031C275.692,623.031 273.877,624.137 273.877,625.498L273.877,636.765C273.877,638.126 275.692,639.231 277.927,639.231L286.027,639.231C288.263,639.231 290.077,638.126 290.077,636.765L290.077,625.498Z" style="fill:rgb(74,163,219);"/>
        </g>
        <g transform="matrix(1,0,0,1,-82.0914,7.7824)">
            <path d="M365.364,582.167C365.5,581.718 365.416,581.231 365.136,580.854C364.856,580.477 364.415,580.255 363.946,580.255C362.302,580.255 359.985,580.255 358.341,580.255C357.872,580.255 357.431,580.477 357.151,580.854C356.871,581.231 356.787,581.718 356.923,582.167C357.282,583.351 357.729,584.827 358.025,585.803C358.214,586.428 358.79,586.855 359.443,586.855C360.427,586.855 361.86,586.855 362.844,586.855C363.497,586.855 364.073,586.428 364.262,585.803C364.558,584.827 365.005,583.351 365.364,582.167Z" style="fill:rgb(74,163,219);"/>
        </g>
        <g transform="matrix(-1,-1.22465e-16,3.0867e-16,-2.52048,640.196,2075.59)">
            <path d="M365.744,580.913C365.795,580.746 365.663,580.579 365.381,580.453C365.1,580.327 364.696,580.255 364.272,580.255C362.517,580.255 359.77,580.255 358.015,580.255C357.591,580.255 357.187,580.327 356.906,580.453C356.624,580.579 356.492,580.746 356.543,580.913C356.941,582.227 357.826,585.149 358.187,586.337C358.276,586.633 358.908,586.855 359.658,586.855C360.553,586.855 361.734,586.855 362.629,586.855C363.379,586.855 364.011,586.633 364.1,586.337C364.461,585.149 365.346,582.227 365.744,580.913Z" style="fill:rgb(74,163,219);"/>
        </g>
        <g transform="matrix(0.741078,0,0,0.741078,206.488,516.315)">
            <path d="M98.319,5.235C99.537,5.184 100.779,5.456 101.907,6.09L164.428,41.22C167.62,43.013 168.695,47.025 166.828,50.173C164.96,53.321 160.853,54.42 157.661,52.627L98.319,19.283L38.978,52.627C35.786,54.42 31.679,53.321 29.811,50.173C27.944,47.025 29.019,43.013 32.211,41.22L43.84,34.685L43.84,14.794C43.84,11.06 46.872,8.027 50.607,8.027C54.342,8.027 57.374,11.06 57.374,14.794L57.374,27.08L94.731,6.09C95.859,5.456 97.102,5.184 98.319,5.235Z" style="fill:rgb(74,163,219);"/>
        </g>
    </g>
</svg>
